<?xml version="1.0" encoding="UTF-8"?><svg xmlns="http://www.w3.org/2000/svg" viewBox="0 0 350 350"><defs><style>.d{fill:#e85324;}</style></defs><g id="a"/><g id="b"><g id="c"><path class="d" d="M264.21,165.7l24.6-24.6,52.29-52.29c5.92-5.92,8.9-13.72,8.9-21.48,0-7.76-2.97-15.56-8.9-21.48l-36.95-36.95C298.24,2.97,290.44,0,282.68,0c-7.76,0-15.56,2.97-21.48,8.9l-39.95,39.95h0l-12.34,12.34h0l-18.59,18.59h0l-24.48,24.48h0L40.78,229.32l-1.95,1.95-2.18,6.56-17.44,52.31h0l-4.51,13.52L0,350l46.34-14.7,13.52-4.51h0l52.31-17.44,6.55-2.18,1.95-1.96L249.16,180.74l15.04-15.04h0ZM120.68,297.19v-24.92l106.58-106.58,12.46,12.46-119.04,119.04Zm-6.01-30.93h-30.93v-30.93l35.67-35.67,70.91-70.91h0l30.93,30.93-106.58,106.58Zm57.18-155.98l12.46,12.46-74.58,74.58-32,32h-24.92l119.04-119.04ZM23.64,326.35l5.71-8.04,7.49-10.54,5.37,5.37-9.18,6.53-1.36,.96-8.04,5.71h0Zm38.52-5.29l-33.23-33.23,16.67-50.02h29.63v36.95h36.94v29.63l-50.02,16.67ZM245.73,172.14l-12.46-12.46-6.01-6.01-4.84-4.84-44.56-44.57,12.46-12.46,67.88,67.88-12.46,12.46Zm-30.81-104.94l12.34-12.34,67.88,67.88-12.34,12.34-21.81-21.81-46.06-46.06Zm33.82-2.89l-15.47-15.47,33.94-33.94c4.28-4.28,9.85-6.4,15.46-6.41,5.61,0,11.18,2.13,15.47,6.41l36.94,36.94c4.28,4.28,6.4,9.85,6.41,15.46,0,5.61-2.13,11.19-6.41,15.47l-33.94,33.94-33.94-33.94-18.47-18.47Zm-39.84,8.9l47.7,47.7,20.17,20.17-12.58,12.58-61.63-61.62-6.25-6.25,12.58-12.58Z"/></g></g></svg>