<?xml version="1.0" encoding="UTF-8"?><svg xmlns="http://www.w3.org/2000/svg" viewBox="0 0 224.18 286.37"><defs><style>.d{fill:#e85324;}</style></defs><g id="a"/><g id="b"><g id="c"><g><path class="d" d="M134.07,2.96c-.09,1.09-1.05,1.88-2.14,1.78-5.73-.56-11.5-.84-17.31-.84-2.9,0-5.83,.07-8.73,.21-7.09,.35-14.07,1.12-20.9,2.27-1.08,.18-2.09-.55-2.25-1.63h0c-.16-1.05,.55-2.04,1.6-2.21,6.99-1.18,14.12-1.96,21.37-2.32,2.96-.15,5.96-.22,8.92-.22,5.94,0,11.84,.29,17.7,.86,1.06,.1,1.84,1.04,1.75,2.1h0Z"/><path class="d" d="M173.71,20.16c-.34,1.05-1.47,1.6-2.51,1.24-7.21-2.56-14.6-4.62-22.12-6.18-1.05-.22-1.72-1.23-1.52-2.28h0c.21-1.06,1.24-1.76,2.31-1.54,7.7,1.59,15.26,3.71,22.64,6.32,.99,.35,1.53,1.43,1.2,2.44h0Z"/><path class="d" d="M142.21,12.01c-.21,1.01-1.16,1.68-2.18,1.54-5.37-.75-10.81-1.26-16.28-1.49-2.77-.12-5.58-.17-8.35-.16-1.38,0-2.76,.03-9.08,.25-1.14,.04-2.06-.9-2.02-2.03h0c.04-1.02,.86-1.83,1.88-1.86,6.51-.23,7.85-.25,9.19-.26,2.84-.02,5.71,.04,8.54,.16,5.6,.24,11.16,.76,16.67,1.53,1.11,.16,1.86,1.22,1.63,2.32h0Z"/><path class="d" d="M92.98,11.08h0c.16,1.07-.59,2.07-1.66,2.22-4.64,.64-9.21,1.47-13.71,2.47-1.03,.23-2.06-.4-2.32-1.42h0c-.27-1.06,.39-2.14,1.46-2.38,4.61-1.03,9.29-1.88,14.04-2.53,1.06-.15,2.03,.59,2.19,1.64Z"/><path class="d" d="M68.87,17.98c-5.74,1.61-11.36,3.51-16.83,5.69-1.02,.41-2.18-.11-2.55-1.14-.36-.99,.13-2.09,1.11-2.48,5.6-2.23,11.36-4.18,17.24-5.83,1.02-.29,2.08,.3,2.39,1.31h0c.32,1.05-.29,2.15-1.34,2.44Z"/><path class="d" d="M189.49,35.62c-.47,.98-1.66,1.38-2.63,.9-14.17-7.1-29.33-12.07-45.03-14.74-1.06-.18-1.78-1.18-1.6-2.25h0c.18-1.06,1.18-1.78,2.25-1.6,16.08,2.73,31.61,7.83,46.13,15.1,.95,.48,1.34,1.63,.88,2.59h0Z"/><path class="d" d="M78.81,21.64v-.04c-.32-1.08,.35-2.18,1.45-2.42,8.51-1.8,17.26-2.95,26.22-3.4,2.71-.13,5.45-.2,8.16-.2,5.86,0,11.69,.31,17.46,.92,1.11,.12,1.88,1.15,1.69,2.24v.04c-.18,1-1.1,1.7-2.11,1.59-5.63-.59-11.32-.9-17.04-.9-2.64,0-5.32,.07-7.96,.2-8.74,.43-17.29,1.56-25.6,3.32-.99,.21-1.98-.38-2.26-1.36Z"/><path class="d" d="M71.37,25.37c-12.43,3.45-24.23,8.34-35.24,14.47-.91,.51-2.07,.21-2.61-.68h0c-.57-.94-.25-2.18,.71-2.71,11.27-6.28,23.37-11.29,36.11-14.83,1.04-.29,2.12,.33,2.4,1.37h0c.28,1.03-.33,2.1-1.36,2.38Z"/><path class="d" d="M199.73,50.7c-.55,.94-1.77,1.25-2.7,.66-24.49-15.57-52.95-23.94-82.4-23.94-1.55,0-3.12,.02-4.69,.07-1.06,.03-1.94-.8-1.98-1.85v-.04c-.04-1.07,.8-1.97,1.87-2,1.6-.05,3.2-.07,4.79-.07,30.21,0,59.38,8.58,84.5,24.55,.87,.55,1.15,1.7,.63,2.59l-.02,.04Z"/><path class="d" d="M96.27,26.54h0c.14,1.07-.62,2.04-1.68,2.18-26.93,3.52-51.56,13.97-72.16,29.41-.86,.65-2.08,.48-2.73-.38h0c-.65-.86-.48-2.08,.38-2.73,21.12-15.85,46.38-26.56,74.01-30.17,1.07-.14,2.04,.62,2.18,1.68Z"/><path class="d" d="M206.27,67.44c-10.9-8.79-22.89-15.9-35.61-21.2-1-.42-1.46-1.57-1.04-2.57h0c.42-.98,1.55-1.44,2.53-1.03,13.06,5.44,25.37,12.74,36.56,21.76,.83,.67,.96,1.89,.3,2.72-.67,.85-1.91,.99-2.75,.31Z"/><path class="d" d="M162.73,39.09c1.03,.35,1.57,1.47,1.21,2.49h0c-.36,1.01-1.46,1.54-2.47,1.2-14.94-5.06-30.73-7.7-46.84-7.7-2.39,0-4.81,.06-7.2,.18-8.67,.43-17.14,1.61-25.33,3.48-1.01,.23-2.03-.36-2.31-1.36-.31-1.08,.35-2.19,1.45-2.44,8.41-1.92,17.1-3.13,26-3.57,2.45-.12,4.94-.18,7.39-.18,16.54,0,32.76,2.71,48.1,7.91Z"/><path class="d" d="M62.68,42.47h0c.42,1.02-.08,2.17-1.1,2.57-16.1,6.28-30.78,15.33-43.48,26.53-.81,.71-2.03,.64-2.74-.16h0c-.71-.81-.64-2.04,.16-2.75,13.05-11.5,28.12-20.79,44.66-27.25,.98-.38,2.09,.09,2.5,1.07Z"/><path class="d" d="M213.99,82.52c-.75,.75-1.96,.76-2.72,.02-.77-.76-1.56-1.5-2.35-2.24-4.05-3.77-8.3-7.28-12.71-10.51-.9-.66-1.07-1.93-.36-2.79v-.02c.66-.8,1.83-.95,2.66-.34,4.54,3.32,8.9,6.93,13.07,10.81,.81,.76,1.62,1.52,2.41,2.3,.77,.75,.78,1.99,.02,2.76l-.02,.02Z"/><path class="d" d="M179.7,57.07h0c-.52,.89-1.65,1.21-2.56,.74-15.31-7.78-31.98-12.65-49.24-14.3-1.07-.1-1.85-1.04-1.76-2.1,.09-1.08,1.04-1.88,2.12-1.78,17.75,1.7,34.9,6.71,50.65,14.71,1.01,.51,1.37,1.76,.8,2.73Z"/><path class="d" d="M57.6,50.91c15.4-6.76,32.25-10.88,50.02-11.76,.86-.04,1.73-.08,2.59-.1,1.1-.03,2.01,.85,2.01,1.95h0c0,1.05-.83,1.92-1.89,1.95-.84,.03-1.69,.06-2.53,.1-17.28,.86-33.68,4.87-48.66,11.44-.94,.41-2.03,.02-2.51-.89-.52-1-.08-2.23,.95-2.68Z"/><path class="d" d="M47.94,57.81h0c.51,.94,.18,2.11-.75,2.63-14.05,7.87-26.55,18.11-37.01,30.14-.71,.82-1.95,.89-2.76,.17-.8-.71-.87-1.93-.17-2.74,10.74-12.36,23.6-22.88,38.03-30.97,.95-.53,2.14-.19,2.66,.76Z"/><path class="d" d="M213.9,96.48c-3.21-3.75-6.64-7.34-10.29-10.73-4.75-4.42-9.77-8.45-15.04-12.08-.88-.61-1.1-1.81-.5-2.69h0c.61-.9,1.83-1.13,2.72-.51,5.41,3.73,10.59,7.88,15.47,12.43,3.75,3.5,7.29,7.19,10.59,11.05,.68,.8,.6,1.99-.17,2.7-.81,.74-2.08,.67-2.79-.17Z"/><path class="d" d="M181.02,66.56h0c-.53,.94-1.72,1.27-2.66,.74-8.24-4.63-16.94-8.33-25.96-11.06-1.04-.31-1.63-1.41-1.3-2.45h0c.32-1.02,1.4-1.59,2.43-1.28,9.29,2.81,18.26,6.63,26.75,11.39,.94,.53,1.28,1.71,.75,2.65Z"/><path class="d" d="M46.76,67.54h0c-.61-.94-.3-2.19,.66-2.75,17.92-10.38,38.51-16.76,60.58-17.86,2.2-.11,4.43-.16,6.62-.16,6.44,0,12.83,.46,19.13,1.36,1.11,.16,1.86,1.21,1.64,2.31h0c-.2,1.01-1.16,1.69-2.18,1.55-6.11-.88-12.32-1.32-18.58-1.32-2.13,0-4.3,.05-6.43,.16-21.43,1.06-41.41,7.26-58.82,17.34-.9,.52-2.05,.25-2.62-.62Z"/><path class="d" d="M34.15,73.57c.85-.64,2.06-.48,2.71,.36h0c.67,.86,.51,2.1-.37,2.76-12.31,9.23-22.93,20.56-31.32,33.43-.59,.91-1.82,1.16-2.72,.55-.88-.6-1.12-1.79-.54-2.68,8.64-13.25,19.57-24.91,32.24-34.41Z"/><path class="d" d="M221.96,117.73h0c-.92,.56-2.11,.26-2.67-.65-5.76-9.37-12.8-18-20.99-25.63-.91-.85-1.84-1.68-2.77-2.5-.83-.73-.88-2.01-.11-2.81h0c.72-.75,1.9-.8,2.68-.12,.96,.84,1.92,1.7,2.86,2.58,8.45,7.87,15.71,16.78,21.65,26.44,.57,.92,.28,2.13-.65,2.69Z"/><path class="d" d="M188.23,80.7c-.64,.81-1.81,.99-2.65,.39-12.98-9.22-27.53-15.78-42.91-19.39-1.04-.24-1.69-1.29-1.45-2.33h0c.24-1.06,1.3-1.71,2.35-1.46,15.86,3.72,30.87,10.49,44.25,20,.91,.65,1.1,1.92,.41,2.8Z"/><path class="d" d="M108.39,54.72c2.07-.1,4.17-.15,6.24-.15,6.93,0,13.8,.57,20.54,1.67,1.1,.18,1.83,1.24,1.59,2.34h0c-.22,1.01-1.19,1.68-2.21,1.51-6.54-1.07-13.2-1.62-19.92-1.62-2.01,0-4.04,.05-6.05,.15-7.86,.39-15.51,1.51-22.89,3.3-1.01,.24-2.03-.35-2.32-1.34-.32-1.07,.33-2.19,1.41-2.45,7.61-1.84,15.5-3,23.61-3.41Z"/><path class="d" d="M73.48,61.43c1.02-.35,2.13,.19,2.48,1.2h0c.35,1.02-.19,2.13-1.2,2.48-31.27,10.75-56.66,33.72-70.78,62.94-.47,.97-1.65,1.37-2.62,.89-.96-.48-1.35-1.64-.89-2.6,14.57-30.13,40.76-53.82,73.01-64.91Z"/><path class="d" d="M222.94,137.26c-.98,.39-2.09-.08-2.51-1.05-4.46-10.44-10.46-20.2-17.84-28.95-.73-.86-.57-2.16,.34-2.83h0c.83-.61,1.98-.47,2.64,.32,7.63,9.05,13.84,19.15,18.45,29.94,.43,1.01-.06,2.17-1.07,2.57h0Z"/><path class="d" d="M196.4,95.02c.8,.76,.81,2.03,.02,2.8-.75,.74-1.95,.75-2.71,.02-.24-.23-.49-.46-.73-.69-9.02-8.4-19.18-15.21-30.1-20.28-1-.47-1.42-1.67-.92-2.66h0c.48-.93,1.61-1.32,2.56-.88,11.29,5.24,21.79,12.28,31.12,20.96,.26,.24,.51,.48,.76,.72Z"/><path class="d" d="M56.97,77.29c15.43-8.59,33.01-13.87,51.82-14.8,1.94-.1,3.91-.14,5.86-.14,11.35,0,22.51,1.61,33.2,4.73,1.06,.31,1.65,1.43,1.31,2.48h0c-.33,1-1.38,1.56-2.39,1.26-10.34-3.01-21.13-4.57-32.12-4.57-1.88,0-3.79,.05-5.66,.14-18.19,.9-35.19,6-50.12,14.32-.93,.52-2.11,.19-2.64-.74-.54-.94-.2-2.14,.75-2.67Z"/><path class="d" d="M.07,149.36c7.35-26.29,23.57-49.09,45.36-64.75,.84-.61,2.02-.45,2.66,.36,.7,.87,.52,2.15-.39,2.8C26.62,102.92,10.93,124.98,3.82,150.42c-.3,1.07-1.42,1.67-2.48,1.33h0c-1-.32-1.56-1.38-1.28-2.38Z"/><path class="d" d="M212.02,131.95h0c.97-.47,2.13-.06,2.6,.91,3.76,7.75,6.62,15.92,8.5,24.38,.24,1.08-.47,2.15-1.57,2.34-1.02,.18-2.01-.47-2.24-1.49-1.81-8.17-4.57-16.07-8.2-23.54-.47-.97-.06-2.13,.91-2.6Z"/><path class="d" d="M203.8,118.51c-.86,.56-2.02,.36-2.63-.47-3.98-5.43-8.49-10.52-13.49-15.18-12.72-11.85-27.87-20.3-44.22-24.87-1.05-.29-1.65-1.39-1.34-2.44h0c.31-1.02,1.37-1.6,2.39-1.32,16.95,4.74,32.65,13.49,45.83,25.77,5.18,4.83,9.85,10.1,13.98,15.72,.66,.9,.43,2.17-.51,2.78Z"/><path class="d" d="M46.42,93.61c17.42-13.59,39.04-22.14,62.74-23.32,1.81-.09,3.66-.13,5.47-.13,3.3,0,6.57,.15,9.83,.43,1.11,.1,1.91,1.1,1.76,2.21h0c-.14,1.03-1.06,1.77-2.1,1.67-3.14-.28-6.31-.42-9.49-.42-1.75,0-3.53,.04-5.28,.13-22.87,1.14-43.73,9.39-60.54,22.5-.82,.64-2,.52-2.67-.27-.72-.84-.6-2.12,.28-2.81Z"/><path class="d" d="M33.08,105.88c.73-.79,1.95-.84,2.74-.12,.8,.73,.85,1.97,.12,2.76-4.43,4.79-8.43,9.99-11.94,15.52-.57,.9-1.75,1.17-2.66,.62h0c-.93-.57-1.21-1.79-.63-2.71,3.63-5.73,7.77-11.1,12.36-16.07Z"/><path class="d" d="M11.07,146.55h0c-1-.37-1.51-1.48-1.15-2.48,1.3-3.64,2.79-7.2,4.45-10.66,.47-.98,1.64-1.39,2.62-.91,.96,.47,1.36,1.63,.9,2.59-1.6,3.34-3.04,6.78-4.29,10.3-.37,1.02-1.5,1.55-2.52,1.17Z"/><path class="d" d="M7.72,150.94c.3-1.06,1.43-1.66,2.48-1.32,1,.32,1.56,1.38,1.27,2.38-2.03,7.14-3.34,14.56-3.84,22.19-.07,1.07-1,1.88-2.07,1.81h0c-1.08-.07-1.89-1-1.82-2.08,.52-7.9,1.87-15.59,3.98-22.99Z"/><path class="d" d="M213.82,172.36c-.18-1.98-.42-3.95-.71-5.91-.16-1.05,.55-2.03,1.6-2.21,1.07-.18,2.09,.55,2.25,1.63,.3,1.98,.54,3.97,.73,5.98,0,.05,.01,.1,.02,.15,.14,.77,.46,2.42,1.02,4.43,.27,.99-.26,2.02-1.23,2.36h0c-1.06,.38-2.22-.23-2.52-1.31-.63-2.28-.99-4.13-1.13-4.97,0-.05-.01-.1-.02-.15Z"/><path class="d" d="M208.99,143.52c.99-.32,2.05,.19,2.42,1.16,1.71,4.51,3.11,9.15,4.18,13.88,.25,1.09-.48,2.16-1.58,2.35h0c-1.02,.17-1.99-.48-2.22-1.49-1.03-4.55-2.37-9.01-4.02-13.35-.4-1.04,.16-2.21,1.22-2.55Z"/><path class="d" d="M206.81,138.84h0c-.96,.44-2.1,.03-2.56-.92-3.74-7.68-8.47-14.89-14.11-21.43-.7-.81-.61-2.03,.2-2.74,.82-.71,2.05-.62,2.76,.2,5.86,6.8,10.77,14.28,14.65,22.26,.48,.98,.05,2.17-.94,2.63Z"/><path class="d" d="M114.32,77.95c.16,0,.31,0,.47,0,11.99,0,23.73,2.07,34.79,6.04,1,.36,1.53,1.44,1.19,2.45h0c-.34,1.04-1.48,1.59-2.51,1.22-10.64-3.82-21.93-5.81-33.47-5.81-.15,0-.3,0-.46,0-1.08,0-1.96-.87-1.96-1.95h0c0-1.07,.87-1.94,1.94-1.95Z"/><path class="d" d="M71.84,91.61c-.95,.46-2.09,.07-2.57-.87-.5-.98-.1-2.17,.89-2.65,8.61-4.14,17.9-7.13,27.67-8.75,1.06-.18,2.06,.54,2.24,1.6h0c.18,1.06-.54,2.07-1.6,2.25-9.4,1.56-18.34,4.43-26.63,8.42Z"/><path class="d" d="M61.7,92.66c.91-.55,2.08-.27,2.65,.62h0c.59,.92,.3,2.15-.64,2.72-8.79,5.29-16.69,11.89-23.43,19.52-.69,.79-1.89,.88-2.7,.21-.85-.7-.95-1.97-.22-2.79,7-7.92,15.2-14.77,24.33-20.26Z"/><path class="d" d="M32.16,122.57c.9,.6,1.13,1.82,.52,2.71-7.55,11.04-12.93,23.66-15.54,37.19-.21,1.07-1.25,1.76-2.32,1.54h0c-1.04-.22-1.71-1.24-1.5-2.28,2.71-14.06,8.3-27.17,16.15-38.65,.61-.88,1.81-1.12,2.7-.52Z"/><path class="d" d="M13.98,170.64h0c1.05,.11,1.82,1.04,1.73,2.1-.38,4.42-.47,8.91-.24,13.46,.04,.71,.61,11.32,3.75,27.01,.22,1.09-.52,2.15-1.63,2.31-1.02,.15-1.99-.53-2.19-1.54-3.21-16.01-3.79-26.86-3.83-27.58-.23-4.73-.14-9.39,.25-13.98,.09-1.09,1.06-1.89,2.15-1.77Z"/><path class="d" d="M211.09,189.71c-1.04-2.24-1.87-4.32-2.54-6.19-1.67-4.68-2.42-8.85-2.61-10.04,0-.05-.01-.09-.02-.14-.48-5.49-1.45-10.89-2.88-16.13-.29-1.08,.37-2.18,1.46-2.42h0c1.01-.22,2.02,.39,2.29,1.39,1.48,5.42,2.48,11,2.99,16.67,0,.05,.01,.1,.02,.15,.19,1.13,.9,4.98,2.41,9.2,.63,1.77,1.42,3.74,2.41,5.86,.48,1.04-.03,2.26-1.1,2.65-.95,.35-2.01-.09-2.43-1.01Z"/><path class="d" d="M158.11,89.65c.47-.98,1.66-1.39,2.63-.9,7.24,3.61,14.08,8.09,20.38,13.37,.82,.69,.93,1.92,.24,2.74-.69,.83-1.92,.94-2.75,.24-6.06-5.09-12.65-9.4-19.62-12.87-.95-.47-1.34-1.63-.89-2.58Z"/><path class="d" d="M198.28,139.71h0c-.93,.39-2,0-2.47-.89-4.77-9.09-11.09-17.4-18.76-24.55-2.31-2.15-4.72-4.18-7.21-6.07-.89-.67-1.03-1.95-.32-2.8h0c.67-.8,1.84-.93,2.67-.3,2.6,1.97,5.1,4.07,7.51,6.32,8,7.45,14.58,16.11,19.56,25.59,.53,1.01,.08,2.26-.97,2.7Z"/><path class="d" d="M161.84,100.49c-.52,.94-1.71,1.28-2.65,.75-10.08-5.64-21.14-9.32-32.65-10.82-1.05-.14-1.8-1.1-1.68-2.15h0c.12-1.08,1.11-1.85,2.19-1.71,12,1.57,23.53,5.41,34.04,11.29,.94,.52,1.28,1.71,.75,2.65h0Z"/><path class="d" d="M114.63,85.74c1.63,0,3.25,.04,4.87,.12,1.08,.06,1.91,.98,1.85,2.06h0c-.06,1.07-.97,1.89-2.04,1.83-1.55-.08-3.11-.12-4.68-.12s-3.02,.04-4.51,.11c-19.13,.95-36.62,7.73-50.82,18.53-.86,.66-2.1,.48-2.75-.39h0c-.63-.86-.46-2.07,.39-2.71,14.81-11.26,33.04-18.33,52.99-19.32,1.56-.08,3.14-.12,4.7-.12Z"/><path class="d" d="M48.74,114.9h0c.75,.75,.77,1.97,.03,2.73-9.56,9.9-16.9,21.92-21.26,35.23-.33,1.02-1.42,1.57-2.44,1.25h0c-1.03-.33-1.6-1.44-1.26-2.47,4.54-13.87,12.19-26.39,22.16-36.71,.76-.78,2.01-.8,2.78-.03Z"/><path class="d" d="M19.21,186.01c-.47-9.46,.46-18.67,2.61-27.43,.26-1.07,1.36-1.71,2.42-1.41h0c1.01,.28,1.61,1.32,1.36,2.34-2.06,8.4-2.96,17.24-2.51,26.31,0,.08,.01,.27,.03,.58,.07,1.08-.76,2.01-1.85,2.07h0c-1.06,.05-1.97-.76-2.04-1.82-.02-.34-.03-.55-.04-.63Z"/><path class="d" d="M21.86,193.33c1.05-.1,1.98,.65,2.11,1.7,1.09,8.76,3.45,23.03,8.48,39.57,.32,1.04-.28,2.14-1.33,2.44h0c-1.02,.29-2.09-.29-2.39-1.31-5.1-16.77-7.5-31.27-8.61-40.22-.14-1.09,.66-2.08,1.75-2.18Z"/><path class="d" d="M201.2,186.13c-2-5.61-2.82-10.46-3.01-11.74,0-.04-.01-.08-.01-.12-.22-2.63-.56-5.24-1.03-7.81-.19-1.06,.51-2.08,1.58-2.27h0c1.06-.19,2.07,.52,2.26,1.57,.48,2.65,.83,5.34,1.06,8.05,0,.04,0,.08,.02,.13,.19,1.23,.97,5.74,2.81,10.88,1.46,4.09,3.67,9.14,7,14.61,.56,.93,.26,2.14-.67,2.69-.92,.54-2.1,.24-2.66-.67-3.49-5.74-5.81-11.03-7.34-15.32Z"/><path class="d" d="M196.17,155.31h0c-.96,.21-1.93-.33-2.25-1.27-4.44-12.88-12-24.58-22.18-34.07-.63-.59-1.26-1.16-1.91-1.72-.82-.71-.89-1.96-.17-2.77,.71-.8,1.93-.87,2.74-.17,.67,.59,1.34,1.19,2,1.8,10.66,9.93,18.57,22.17,23.21,35.65,.38,1.1-.29,2.29-1.43,2.54Z"/><path class="d" d="M147.08,103.99c-10.18-4.29-21.18-6.55-32.45-6.55-1.37,0-2.76,.03-4.13,.1-5.53,.27-10.91,1.08-16.1,2.37-1.03,.26-2.08-.36-2.35-1.39h0c-.28-1.05,.36-2.13,1.41-2.39,5.42-1.35,11.06-2.19,16.85-2.48,1.43-.07,2.89-.11,4.32-.11,11.8,0,23.32,2.36,33.97,6.86,1.02,.43,1.47,1.62,1.01,2.62h0c-.44,.95-1.56,1.38-2.53,.97Z"/><path class="d" d="M77.35,101.86c.94-.44,2.07-.06,2.56,.86h0c.51,.98,.11,2.2-.9,2.67-12.3,5.79-22.93,14.47-31.06,25.12-.64,.84-1.84,1.02-2.7,.39-.88-.65-1.06-1.89-.4-2.75,8.5-11.14,19.62-20.23,32.49-26.29Z"/><path class="d" d="M29.4,171.55h0c-1.08-.13-1.85-1.12-1.71-2.2,1.6-11.7,5.53-22.71,11.33-32.53,.55-.93,1.75-1.24,2.68-.68,.92,.55,1.22,1.74,.67,2.66-5.54,9.38-9.29,19.91-10.82,31.08-.14,1.05-1.1,1.79-2.15,1.67Z"/><path class="d" d="M30.64,211.55c-3.07-15.08-3.62-25.25-3.65-25.92-.13-2.55-.14-5.07-.05-7.57,.04-1.08,.95-1.92,2.03-1.87h0c1.07,.05,1.89,.95,1.86,2.02-.09,2.39-.07,4.81,.05,7.24,.03,.66,.57,10.58,3.57,25.34,.22,1.08-.5,2.12-1.58,2.3-1.03,.18-2.02-.5-2.23-1.53Z"/><path class="d" d="M34.58,220.04c1.03-.23,2.05,.4,2.31,1.42,1.64,6.51,3.73,13.6,6.37,21.01,1.34,3.75,2.77,7.47,4.29,11.16,.42,1.02-.09,2.18-1.12,2.57h0c-.98,.37-2.08-.11-2.48-1.08-1.55-3.75-3-7.53-4.36-11.34-2.69-7.53-4.81-14.74-6.48-21.37-.27-1.06,.39-2.14,1.46-2.38Z"/><path class="d" d="M190.44,175.27s0-.07-.01-.11c-.71-8.78-2.92-17.26-6.49-25.14-.45-1,0-2.18,1.02-2.61h0c.97-.41,2.09,.03,2.53,.99,3.74,8.25,6.06,17.13,6.82,26.32,0,.04,0,.08,.01,.11,.2,1.34,1.05,6.53,3.22,12.61,2.03,5.69,5.38,13.05,10.85,20.91,.62,.89,.39,2.1-.5,2.71h0c-.88,.61-2.09,.39-2.7-.49-5.71-8.2-9.21-15.89-11.33-21.83-2.37-6.63-3.25-12.32-3.42-13.49Z"/><path class="d" d="M180.44,139.74h0c-.89,.49-2,.22-2.57-.62-3.25-4.86-7.09-9.38-11.45-13.44-8.96-8.34-19.62-14.32-31.11-17.58-1.03-.29-1.64-1.36-1.35-2.4h0c.29-1.04,1.37-1.65,2.41-1.36,12.09,3.43,23.3,9.7,32.71,18.48,4.59,4.28,8.62,9.02,12.04,14.13,.63,.94,.32,2.23-.67,2.78Z"/><path class="d" d="M41.23,155.24c-1.08-.33-1.66-1.51-1.25-2.56,11.02-28.64,38.14-49.63,70.71-51.25,1.31-.06,2.63-.1,3.94-.1,2.13,0,4.26,.09,6.37,.25,1.09,.09,1.9,1.07,1.78,2.16h0c-.12,1.05-1.05,1.81-2.1,1.73-2-.16-4.02-.24-6.05-.24-1.24,0-2.5,.03-3.74,.09-30.99,1.54-56.78,21.51-67.27,48.75-.37,.95-1.41,1.46-2.39,1.17Z"/><path class="d" d="M44.33,226.92c-1.02,.25-2.05-.36-2.33-1.37-6.28-22.68-7.18-39.46-7.22-40.31-.4-8.07,.42-15.91,2.29-23.37,.27-1.06,1.37-1.69,2.42-1.39h0c1.01,.29,1.61,1.33,1.35,2.35-1.78,7.09-2.56,14.55-2.18,22.22,.04,.83,.93,17.22,7.08,39.46,.29,1.06-.35,2.16-1.42,2.41Z"/><path class="d" d="M44.68,234.53c-.33-1.04,.25-2.15,1.3-2.46h0c1.02-.31,2.09,.26,2.41,1.27,.69,2.14,1.42,4.31,2.21,6.52,3.45,9.67,7.54,19.16,12.22,28.38,.51,1,.07,2.22-.96,2.67h0c-.95,.41-2.05,.02-2.52-.9-4.76-9.37-8.92-19.01-12.42-28.83-.8-2.25-1.55-4.46-2.25-6.64Z"/><path class="d" d="M185.1,178.45h0c1.03-.17,2.01,.49,2.23,1.51,.56,2.63,1.46,6.2,2.86,10.1,1.46,4.09,3.55,8.98,6.51,14.29,.53,.95,.18,2.14-.77,2.66-.94,.51-2.11,.17-2.63-.76-3.09-5.53-5.26-10.62-6.78-14.88-1.46-4.1-2.41-7.83-3-10.6-.23-1.09,.49-2.14,1.58-2.33Z"/><path class="d" d="M181.3,166.68c-2.68-12.25-8.72-23.54-17.52-32.67-.73-.76-.73-1.96,0-2.72h0c.77-.79,2.03-.79,2.8,0,9.32,9.66,15.7,21.61,18.54,34.57,.24,1.08-.48,2.13-1.56,2.33h0c-1.03,.18-2.02-.48-2.25-1.51Z"/><path class="d" d="M111.27,113.11c-5.78,.29-11.35,1.29-16.65,2.91-1.02,.31-2.1-.24-2.43-1.25-.34-1.03,.23-2.15,1.27-2.47,5.6-1.72,11.5-2.78,17.61-3.08,1.18-.06,2.37-.09,3.55-.09,15.05,0,29.56,4.68,41.71,13.34,.88,.63,1.08,1.86,.44,2.73h0c-.63,.87-1.84,1.06-2.71,.44-11.5-8.18-25.21-12.61-39.44-12.61-1.12,0-2.25,.03-3.36,.08Z"/><path class="d" d="M44.51,178.01h0c-1.09-.05-1.93-1-1.85-2.08,1.87-25.38,17.04-47.42,38.81-58.72,.96-.5,2.15-.11,2.64,.86,.47,.95,.09,2.11-.85,2.6-20.59,10.7-34.93,31.53-36.71,55.53-.08,1.06-.98,1.86-2.04,1.81Z"/><path class="d" d="M55.8,236.78c-1.03,.4-2.2-.14-2.55-1.19-7.48-21.97-9.78-40.35-10.44-47.54-.1-1.09,.72-2.05,1.82-2.12,1.05-.07,1.96,.72,2.06,1.77,.63,6.95,2.88,24.99,10.25,46.64,.34,.99-.17,2.06-1.14,2.44Z"/><path class="d" d="M61.19,255.76c-1.6-3.58-3.11-7.19-4.53-10.83-.4-1.03,.14-2.19,1.18-2.55h0c.99-.34,2.07,.16,2.45,1.14,1.4,3.58,2.88,7.14,4.46,10.66,.44,.99,0,2.16-1.01,2.59h0c-.98,.42-2.11-.02-2.55-.99Z"/><path class="d" d="M65.34,259.83h0c.95-.39,2.04,.03,2.49,.95,2.65,5.45,5.51,10.82,8.57,16.08,.56,.97,.2,2.21-.8,2.72h0c-.92,.47-2.05,.14-2.57-.75-3.12-5.34-6.02-10.8-8.71-16.34-.49-1.01-.02-2.23,1.02-2.65Z"/><path class="d" d="M181.78,195.26h0c.99-.36,2.08,.13,2.47,1.11,3.2,7.95,8.42,17.92,16.8,28.09,.66,.8,.58,1.97-.18,2.67h0c-.82,.76-2.11,.68-2.83-.19-8.69-10.54-14.09-20.88-17.41-29.12-.41-1.02,.11-2.18,1.15-2.56Z"/><path class="d" d="M179.91,189.99h0c-1.04,.32-2.14-.28-2.44-1.33-1.82-6.31-2.44-10.97-2.54-11.85-.29-3.95-.97-7.82-2.01-11.58-.29-1.04,.32-2.12,1.37-2.41h0c1.04-.28,2.1,.33,2.39,1.37,1.1,3.97,1.81,8.06,2.13,12.23,.11,.86,.71,5.25,2.41,11.15,.29,1.02-.28,2.09-1.3,2.4Z"/><path class="d" d="M170.59,158.42c-3.29-8.01-8.3-15.29-14.79-21.34-5.38-5.01-11.53-8.95-18.15-11.69-1-.41-1.47-1.55-1.06-2.54h0c.41-1,1.54-1.47,2.53-1.07,7.05,2.92,13.6,7.11,19.33,12.45,6.91,6.44,12.24,14.18,15.74,22.7,.43,1.05-.12,2.24-1.19,2.59h-.01c-.96,.32-2.01-.16-2.4-1.1Z"/><path class="d" d="M131.17,121.15c-.28,1.01-1.32,1.61-2.34,1.37-4.61-1.12-9.37-1.7-14.2-1.7-.99,0-1.99,.02-2.98,.07-9.66,.48-18.69,3.21-26.59,7.66-.91,.51-2.06,.21-2.61-.68-.58-.94-.25-2.18,.71-2.72,8.41-4.73,18.02-7.64,28.3-8.15,1.05-.05,2.12-.08,3.17-.08,5.14,0,10.21,.61,15.12,1.8,1.07,.26,1.72,1.36,1.42,2.42h0Z"/><path class="d" d="M55.35,194.69c.15,1.06-.59,2.05-1.65,2.2-1.06,.15-2.05-.59-2.2-1.65-.92-6.44-1.13-10.39-1.15-10.78-1.01-20.29,7.55-38.89,21.71-51.41,.83-.73,2.09-.63,2.79,.22h0c.67,.81,.57,2.01-.22,2.7-13.3,11.76-21.34,29.23-20.39,48.29,.02,.37,.22,4.19,1.11,10.42Z"/><path class="d" d="M67.32,245.32h0c-1,.41-2.15-.07-2.55-1.07-1.11-2.76-2.16-5.53-3.15-8.32-2.59-7.25-4.59-14.13-6.13-20.36-.26-1.05,.38-2.1,1.43-2.36,1.04-.25,2.09,.38,2.35,1.42,1.51,6.11,3.48,12.86,6.02,19.99,.98,2.74,2.01,5.47,3.1,8.18,.4,.99-.08,2.12-1.06,2.53Z"/><path class="d" d="M68.82,248.81h0c.98-.41,2.1,.04,2.53,1.01,4.41,10.01,9.57,19.75,15.4,29.09,.28,.44,.56,.89,.84,1.33,.58,.91,.31,2.13-.61,2.7-.91,.57-2.1,.29-2.68-.61-.29-.45-.57-.9-.86-1.36-5.94-9.5-11.18-19.4-15.67-29.58-.44-1,.03-2.17,1.04-2.59Z"/><path class="d" d="M167.69,181.08c-.19-1.09,.56-2.12,1.66-2.27h0c1.03-.14,1.99,.56,2.18,1.59,.58,3.28,1.76,8.67,3.98,14.9,3.43,9.62,9.84,23.03,21.57,36.52,.69,.79,.62,1.99-.15,2.71-.81,.75-2.07,.68-2.79-.15-12.12-13.95-18.74-27.81-22.3-37.77-2.31-6.48-3.54-12.07-4.15-15.53Z"/><path class="d" d="M168.67,173.46c-1.04,.16-2.03-.53-2.22-1.57-2.39-13.16-9.69-24.59-19.86-32.4-.86-.66-1.01-1.89-.35-2.75h0c.66-.84,1.88-.99,2.73-.34,1.44,1.1,2.83,2.28,4.17,3.53,9.02,8.4,14.98,19.33,17.14,31.24,.2,1.08-.53,2.11-1.61,2.28Z"/><path class="d" d="M141.27,133.68h0c-.51,.93-1.66,1.28-2.6,.79-7.24-3.74-15.42-5.85-24.05-5.85-.86,0-1.73,.02-2.59,.06-4.25,.21-8.37,.92-12.28,2.08-1.01,.3-2.08-.27-2.4-1.28-.33-1.04,.26-2.16,1.31-2.47,4.2-1.24,8.62-2,13.18-2.23,.92-.05,1.86-.07,2.79-.07,9.08,0,17.9,2.18,25.83,6.28,.98,.5,1.34,1.71,.81,2.68Z"/><path class="d" d="M62.44,174.19c-.14,1.04-1.08,1.77-2.12,1.67h0c-1.1-.11-1.89-1.11-1.74-2.21,2.56-18.87,14.53-34.99,31.21-43.18,.97-.47,2.13-.08,2.61,.88,.48,.97,.08,2.14-.89,2.61-15.54,7.62-26.69,22.64-29.08,40.22Z"/><path class="d" d="M66.72,220.41h0c-1.01,.21-2-.4-2.28-1.39-5.5-19.88-6.27-34.2-6.31-34.93-.02-.4-.04-.8-.05-1.2-.03-1.1,.85-2.01,1.95-2.01h0c1.05,0,1.92,.83,1.95,1.89,.01,.38,.02,.75,.04,1.13,.04,.71,.79,14.65,6.17,34.09,.3,1.08-.38,2.2-1.47,2.43Z"/><path class="d" d="M83.37,256.84c.5,1,.07,2.21-.95,2.66-.95,.42-2.06,.02-2.53-.9-4.14-8.23-7.76-16.68-10.83-25.28-.42-1.18-.83-2.36-1.22-3.52-.35-1.04,.23-2.16,1.27-2.48h0c1.01-.31,2.09,.24,2.42,1.24,.38,1.14,.78,2.29,1.19,3.45,3.01,8.45,6.57,16.75,10.64,24.84Z"/><path class="d" d="M85.18,264.46h0c.94-.51,2.11-.17,2.63,.76,1.8,3.23,3.68,6.42,5.65,9.57,1.5,2.41,3.06,4.79,4.66,7.14,.62,.92,.36,2.17-.58,2.75-.89,.55-2.05,.3-2.64-.56-1.63-2.4-3.21-4.82-4.74-7.27-2-3.2-3.92-6.45-5.75-9.73-.53-.95-.18-2.14,.77-2.66Z"/><path class="d" d="M186.89,234.84c-.84,.68-2.08,.54-2.75-.32-8.98-11.41-14.65-22.52-18.19-31.42-.43-1.07,.17-2.28,1.28-2.59h0c.96-.27,1.97,.23,2.34,1.15,3.43,8.63,8.92,19.39,17.63,30.45,.66,.84,.52,2.05-.31,2.72Z"/><path class="d" d="M165.36,195.67h0c-1.03,.33-2.14-.25-2.46-1.29-2.71-8.91-3.43-15.43-3.5-16.15-.26-3.75-.97-7.37-2.09-10.81-.34-1.03,.23-2.14,1.27-2.47,1.02-.32,2.1,.24,2.43,1.26,1.21,3.72,1.99,7.63,2.28,11.68,.08,.73,.81,6.96,3.35,15.35,.31,1.02-.26,2.1-1.27,2.42Z"/><path class="d" d="M154.54,153.33c.66,.94,.37,2.24-.63,2.81-.87,.49-1.97,.25-2.54-.57-6.13-8.71-15.26-15.14-25.82-17.8-1.03-.26-1.66-1.31-1.41-2.35h0c.26-1.06,1.32-1.69,2.36-1.43,11.46,2.89,21.38,9.88,28.04,19.34Z"/><path class="d" d="M83.3,143.94c7.87-6.62,17.89-10.82,28.93-11.37,.8-.04,1.61-.06,2.4-.06,.4,0,.81,0,1.21,.02,1.11,.03,1.97,.98,1.89,2.08h0c-.07,1.04-.95,1.84-2,1.81-.37,0-.73-.01-1.1-.01-.73,0-1.48,.02-2.21,.05-10.16,.5-19.37,4.37-26.62,10.46-.8,.67-1.99,.59-2.7-.18-.74-.82-.65-2.09,.19-2.8Z"/><path class="d" d="M72.28,201.42c.21,1.07-.5,2.11-1.58,2.29-1.04,.18-2.04-.51-2.24-1.55-2.14-10.92-2.52-17.98-2.54-18.47-.55-11.15,2.71-21.63,8.63-30.16,.62-.89,1.85-1.11,2.74-.47h0c.86,.62,1.07,1.82,.46,2.69-5.45,7.85-8.45,17.49-7.94,27.75,.02,.48,.39,7.31,2.47,17.92Z"/><path class="d" d="M76.3,230.69c-1.54-4.31-2.85-8.47-3.97-12.41-.29-1.03,.3-2.1,1.32-2.4,1.04-.31,2.13,.29,2.42,1.33,1.1,3.86,2.39,7.93,3.9,12.16,5.11,14.32,11.84,28.21,20,41.27,2.31,3.7,4.74,7.34,7.28,10.9,.64,.9,.41,2.16-.53,2.77h0c-.87,.57-2.04,.35-2.65-.5-2.59-3.63-5.06-7.33-7.41-11.1-8.31-13.3-15.16-27.44-20.37-42.03Z"/><path class="d" d="M168.76,222.13c.92-.51,2.08-.2,2.62,.7,3.96,6.64,8.95,13.67,15.22,20.69,.7,.78,.65,1.97-.11,2.7-.8,.77-2.07,.72-2.8-.11-6.45-7.21-11.58-14.45-15.66-21.28-.56-.94-.23-2.17,.73-2.7Z"/><path class="d" d="M164.4,214.02c-.98,.47-2.15,.05-2.61-.93-1.91-4.06-3.43-7.85-4.64-11.24-2.09-5.85-3.41-11.05-4.24-15.02-.23-1.1,.52-2.17,1.63-2.33h0c1.02-.14,1.97,.53,2.18,1.53,.8,3.83,2.08,8.86,4.09,14.51,1.17,3.28,2.65,6.96,4.5,10.9,.45,.97,.04,2.12-.92,2.58Z"/><path class="d" d="M137.84,149.94h0c.67-.86,1.91-.99,2.75-.3,7.7,6.32,13.08,15.4,14.58,25.76,.16,1.09-.62,2.09-1.72,2.21h-.02c-1.04,.11-1.98-.62-2.13-1.66-1.36-9.37-6.22-17.58-13.18-23.3-.82-.68-.96-1.88-.3-2.71Z"/><path class="d" d="M77.92,168.02h0c-1.01-.4-1.51-1.55-1.09-2.56,5.92-14.08,19.52-24.3,35.78-25.11,.67-.03,1.35-.05,2.02-.05,5.16,0,10.11,.97,14.68,2.73,1.05,.41,1.53,1.63,1.04,2.65h0c-.44,.92-1.51,1.34-2.46,.97-4.13-1.59-8.6-2.46-13.26-2.46-.61,0-1.22,.02-1.83,.04-14.71,.73-27.02,9.98-32.37,22.72-.41,.97-1.52,1.44-2.5,1.05Z"/><path class="d" d="M83.88,222.97c-1.01,.29-2.07-.28-2.39-1.28-6.88-21.67-7.75-37.64-7.79-38.38-.08-1.59-.07-3.16,.04-4.71,.07-1.12,1.08-1.95,2.19-1.81h0c1.02,.13,1.76,1.04,1.69,2.06-.09,1.4-.1,2.83-.03,4.27,.04,.71,.88,16.22,7.61,37.39,.33,1.05-.26,2.17-1.32,2.47Z"/><path class="d" d="M98.93,257.46c-.94,.47-2.08,.1-2.58-.82-4.35-8.09-8.15-16.43-11.37-24.94-.39-1.02,.15-2.16,1.17-2.52h0c1-.35,2.1,.16,2.47,1.15,3.16,8.35,6.89,16.53,11.15,24.46,.52,.97,.14,2.18-.85,2.67Z"/><path class="d" d="M101.94,266.42c-.56-.92-.26-2.12,.66-2.68h0c.92-.56,2.11-.26,2.67,.66,.43,.71,.87,1.42,1.31,2.12,3.58,5.74,7.46,11.31,11.61,16.71,.68,.88,.49,2.14-.42,2.78-.85,.6-2.03,.42-2.67-.4-4.23-5.5-8.18-11.18-11.83-17.02-.45-.72-.9-1.44-1.34-2.17Z"/><path class="d" d="M175.07,245.09c-.85,.65-2.05,.5-2.72-.34-10.98-13.81-17.63-27.29-21.61-37.76-.39-1.03,.15-2.18,1.19-2.53h0c.99-.34,2.08,.17,2.46,1.15,3.87,10.17,10.35,23.28,21.03,36.72,.68,.85,.52,2.09-.34,2.75Z"/><path class="d" d="M143.04,164.17c2.67,4.42,4.35,9.52,4.7,15,.05,.61,.63,6.55,2.98,15.19,.28,1.04-.33,2.12-1.38,2.4-1.04,.28-2.1-.34-2.38-1.37-2.48-9.1-3.06-15.32-3.11-15.93-.3-4.84-1.78-9.36-4.14-13.27-.56-.92-.26-2.12,.67-2.68h0c.91-.55,2.11-.26,2.66,.65Z"/><path class="d" d="M137.95,160.65h0c-.77,.67-1.93,.64-2.65-.08-5.31-5.3-12.64-8.57-20.67-8.57-.48,0-.96,.01-1.44,.04-5.5,.27-10.58,2.06-14.85,4.93-.83,.56-1.95,.39-2.58-.39h0c-.73-.89-.53-2.21,.42-2.85,4.84-3.25,10.59-5.27,16.82-5.58,.54-.03,1.09-.04,1.64-.04,9.09,0,17.39,3.7,23.41,9.7,.8,.8,.76,2.11-.09,2.85Z"/><path class="d" d="M87.41,197.69c.2,1.06-.5,2.08-1.56,2.28-1.05,.2-2.07-.5-2.27-1.55-1.76-9.23-2.08-15.07-2.1-15.49-.42-8.5,2.41-16.42,7.41-22.56,.68-.83,1.9-.97,2.73-.29h0c.84,.68,.97,1.91,.29,2.75-4.4,5.41-6.91,12.4-6.53,19.9,.02,.41,.32,6.03,2.03,14.95Z"/><path class="d" d="M97.35,236.28h0c-1,.43-2.15-.03-2.57-1.03-1.35-3.24-2.62-6.5-3.79-9.79-2.63-7.38-4.54-14.2-5.93-20.13-.25-1.08,.44-2.15,1.53-2.36,1.02-.2,2.02,.45,2.26,1.47,1.35,5.79,3.22,12.47,5.81,19.71,1.15,3.22,2.39,6.43,3.72,9.6,.41,.98-.04,2.11-1.02,2.54Z"/><path class="d" d="M98.71,244.05c-.47-.98-.04-2.16,.95-2.61,.97-.44,2.11-.02,2.57,.94,3.26,6.85,6.92,13.54,10.97,20.01,4.09,6.54,8.57,12.87,13.42,18.95,.69,.87,.52,2.13-.37,2.79h0c-.84,.62-2.02,.46-2.68-.36-4.94-6.2-9.51-12.65-13.68-19.32-4.12-6.6-7.86-13.42-11.18-20.41Z"/><path class="d" d="M153.98,227.81c.93-.55,2.14-.23,2.67,.71,4.85,8.47,11.19,17.58,19.44,26.62,.71,.78,.67,1.98-.09,2.71h0c-.79,.76-2.05,.72-2.79-.09-8.46-9.26-14.96-18.61-19.94-27.3-.53-.93-.22-2.11,.71-2.65Z"/><path class="d" d="M151.23,222.68c-.96,.45-2.1,.04-2.57-.91-2.61-5.35-4.64-10.31-6.19-14.68-4.07-11.42-5.61-20.6-6.14-24.73-.14-1.09,.65-2.08,1.74-2.19h0c1.05-.1,1.99,.65,2.12,1.69,.51,3.92,1.99,12.83,5.95,23.92,1.52,4.25,3.48,9.07,6.02,14.27,.48,.98,.06,2.17-.93,2.63Z"/><path class="d" d="M135.17,174.99c-2.28-7.45-8.49-13.15-16.16-14.74-1.01-.21-1.69-1.16-1.54-2.18h0c.16-1.12,1.23-1.87,2.34-1.64,9.05,1.89,16.39,8.61,19.09,17.42,.34,1.11-.35,2.26-1.49,2.49-.98,.19-1.95-.39-2.24-1.35Z"/><path class="d" d="M96.9,204.62c.26,1.04-.38,2.1-1.42,2.35h0c-1.05,.26-2.1-.38-2.36-1.43-3.33-13.52-3.82-22.49-3.85-23.01-.56-11.26,6.35-21.2,16.38-25,1.03-.39,2.19,.16,2.53,1.21h0c.32,.99-.18,2.06-1.15,2.43-8.49,3.21-14.34,11.63-13.87,21.17,.02,.49,.49,9.15,3.73,22.27Z"/><path class="d" d="M112.11,248.89h0c-.95,.52-2.15,.16-2.65-.8-4.33-8.18-8.05-16.63-11.13-25.26-.93-2.62-1.77-5.16-2.52-7.61-.32-1.05,.29-2.15,1.34-2.45h0c1.02-.28,2.07,.3,2.39,1.31,.74,2.39,1.56,4.87,2.47,7.44,3.01,8.45,6.66,16.73,10.9,24.74,.5,.94,.15,2.11-.79,2.62Z"/><path class="d" d="M112.92,254.36c-.54-.94-.21-2.14,.74-2.67h0c.93-.52,2.11-.19,2.64,.73,1.13,1.97,2.3,3.91,3.51,5.84,4.87,7.8,10.33,15.28,16.32,22.39,.71,.84,.58,2.1-.27,2.78h0c-.82,.66-2.02,.54-2.7-.27-6.11-7.25-11.68-14.88-16.65-22.84-1.23-1.97-2.42-3.96-3.58-5.97Z"/><path class="d" d="M162.9,257.81c-14.88-17.74-23.21-35.32-27.77-48.11v-.03c-.36-.97,.16-2.04,1.14-2.37l.18-.06c.96-.32,2,.18,2.34,1.14v.02c4.45,12.46,12.57,29.61,27.09,46.92,.67,.8,.55,2-.27,2.65l-.15,.12c-.79,.62-1.92,.5-2.57-.27Z"/><path class="d" d="M133.73,198.62h0c-1.05,.29-2.14-.34-2.4-1.39-2.52-9.88-3-16.39-3.02-16.7-.2-3.58-1.76-6.77-4.16-9.09-.73-.71-.78-1.86-.12-2.64h0c.73-.86,2.03-.93,2.84-.15,3.07,2.97,5.07,7.06,5.33,11.63,.03,.37,.53,6.62,2.91,15.98,.26,1.03-.35,2.08-1.37,2.36Z"/><path class="d" d="M99.04,181.31h0c-1.15-.04-2.01-1.06-1.87-2.2,1.03-8.32,7.93-14.96,16.59-15.39,.29-.01,.58-.02,.87-.02,1.33,0,2.62,.15,3.86,.43,1.18,.26,1.82,1.53,1.36,2.65h0c-.36,.88-1.31,1.36-2.23,1.15-.96-.22-1.96-.33-2.99-.33-.22,0-.45,0-.68,.02-6.73,.33-12.1,5.5-12.91,11.97-.13,1.01-.98,1.76-2,1.73Z"/><path class="d" d="M112.53,232.05h0c-.99,.45-2.16,0-2.59-1-1.54-3.58-2.96-7.19-4.26-10.84-4.71-13.2-6.86-24.21-7.84-30.95-.16-1.1,.64-2.11,1.74-2.21,1.03-.1,1.96,.63,2.11,1.66,.94,6.5,3.03,17.24,7.65,30.19,1.27,3.57,2.66,7.1,4.17,10.6,.42,.97-.01,2.1-.98,2.54Z"/><path class="d" d="M136.47,271.92c-.85,.62-2.04,.45-2.69-.39-3.82-4.95-7.38-10.07-10.67-15.34-3.31-5.3-6.35-10.76-9.11-16.33-.49-.99-.05-2.19,.96-2.64,.96-.43,2.08-.02,2.54,.92,2.7,5.46,5.67,10.8,8.92,15.99,3.22,5.16,6.71,10.17,10.45,15.02,.67,.87,.49,2.13-.4,2.77h0Z"/><path class="d" d="M145.24,243.41c.9-.53,2.05-.26,2.62,.61,4.54,7,10,14.25,16.56,21.45,.74,.82,.66,2.08-.18,2.8h0c-.8,.68-1.99,.6-2.7-.17-6.71-7.37-12.3-14.78-16.95-21.95-.6-.93-.31-2.18,.64-2.74Z"/><path class="d" d="M136.7,223.81c1.71,3.7,3.69,7.61,5.97,11.64,.54,.96,.19,2.17-.79,2.68-.93,.49-2.09,.15-2.6-.77-2.34-4.14-4.36-8.14-6.12-11.93-.46-1,0-2.17,1.01-2.61h0c.97-.41,2.09,.02,2.53,.98Z"/><path class="d" d="M109.53,188.59c.16,1.08-.59,2.08-1.67,2.22-1.05,.14-2.02-.59-2.18-1.64-.69-4.49-.83-7.15-.84-7.41-.27-5.39,3.9-10,9.3-10.27,.16,0,.32-.01,.48-.01,5.21,0,9.5,4.07,9.78,9.27,.02,.3,.86,12.89,7.05,30.25,.48,1.34,1,2.73,1.56,4.16,.4,1.03-.13,2.19-1.18,2.55h0c-.99,.34-2.06-.16-2.44-1.13-.58-1.48-1.11-2.9-1.6-4.28-6.48-18.18-7.26-31.18-7.27-31.35-.16-3.14-2.75-5.59-5.89-5.59-.1,0-.19,0-.29,0-3.25,.16-5.76,2.93-5.6,6.18,.01,.24,.15,2.75,.8,7.01Z"/><path class="d" d="M128.65,246.48h0c-.93,.55-2.14,.23-2.68-.71-5.16-9.05-9.5-18.5-12.96-28.18-2.54-7.12-4.29-13.53-5.51-18.89-.24-1.08,.45-2.14,1.54-2.34,1.03-.19,2.03,.46,2.26,1.48,1.18,5.21,2.89,11.47,5.38,18.44,3.38,9.46,7.63,18.7,12.67,27.55,.53,.93,.22,2.1-.7,2.64Z"/><path class="d" d="M133.02,253.5h0c.89-.54,2.06-.28,2.64,.59,4.23,6.37,8.89,12.5,13.96,18.35,.71,.82,.62,2.06-.21,2.76-.81,.69-2.04,.6-2.74-.21-5.17-5.98-9.94-12.24-14.26-18.76-.61-.92-.33-2.17,.61-2.74Z"/><path class="d" d="M116.62,181.18c0,.1,.45,8.24,3.84,20.78,.29,1.09-.37,2.2-1.46,2.47h0c-1.05,.25-2.12-.38-2.4-1.42-3.49-12.87-3.94-21.19-3.97-21.63-.05-1.1,.79-2.04,1.9-2.1,1.1-.05,2.04,.79,2.1,1.9Z"/><path class="d" d="M144.22,256.14l-.02,.02c-.9,.61-2.13,.38-2.75-.51-1.78-2.53-3.48-5.1-5.11-7.71-6.53-10.45-11.91-21.54-15.98-32.96-.1-.29-.2-.58-.3-.86-.37-1.07,.21-2.23,1.29-2.57h0c1.03-.32,2.13,.23,2.48,1.25,.1,.28,.2,.56,.3,.84,3.87,10.85,10.25,24.9,20.62,39.7,.64,.92,.41,2.18-.52,2.8Z"/><path class="d" d="M148.23,261.48h0c.86-.7,2.13-.56,2.82,.31,1.04,1.31,2.12,2.62,3.22,3.93,.72,.86,.6,2.14-.27,2.84-.85,.69-2.09,.57-2.79-.26-1.12-1.33-2.22-2.67-3.3-4.02-.69-.86-.54-2.12,.32-2.81Z"/></g></g></g></svg>