<?xml version="1.0" encoding="UTF-8"?><svg xmlns="http://www.w3.org/2000/svg" viewBox="0 0 354.21 276.58"><defs><style>.d{fill:#e85324;}</style></defs><g id="a"/><g id="b"><g id="c"><g><path class="d" d="M140.81,241.46c-3.73-9.98-7.47-19.96-11.2-29.93-4.04-10.81-8.01-21.64-12.11-32.42-2.73-7.19-2.71-14.29,.01-21.48,15.69-41.41,31.38-82.83,46.97-124.28,.85-2.26,1.94-3.03,4.25-2.82,2.22,.2,4.47,.04,7.07,.04,0,1.34,0,2.38,0,3.43-.03,35.04-.07,70.08-.04,105.12,0,2.03-.31,3.28-2.45,4.23-5.23,2.32-7.83,7.99-6.57,13.36,1.3,5.5,6.09,9.4,11.59,9.42,5.76,.03,10.58-3.75,11.94-9.35,1.3-5.38-1.33-10.91-6.43-13.49-.78-.4-1.59-.74-2.26-1.05V30.63c3.05,0,5.89-.17,8.68,.11,.75,.08,1.64,1.43,1.99,2.38,6.66,18.07,13.26,36.17,19.86,54.26,8.58,23.51,17.11,47.04,25.74,70.54,2.53,6.9,2.7,13.73,.23,20.66-7.19,20.17-14.37,40.34-21.51,60.52-.56,1.58-1.05,2.6-3.13,2.6-23.68-.1-47.37-.09-71.06-.11-.48,0-.97-.08-1.58-.13Z"/><path class="d" d="M206.64,11.32c38.12,7.7,70.41,25.58,96.22,54.65,25.77,29.02,39.62,63.16,42.39,102.16h8.96v20.49h-20.53v-20.41h6.99c-2.58-37.1-15.66-69.44-39.54-97.39C266.93,30.82,220.2,15.5,188.56,14.4c-.09,1.99-.18,3.98-.28,6.11h-20.51v-6.74c-41.6,2.81-77.19,18.19-106.58,47.12C31.4,90.22,15.37,126.03,12.23,168.1h8.24v20.6H0v-20.55c1.76,0,3.58-.1,5.38,.03,1.91,.14,2.46-.63,2.6-2.5,3.32-41.87,19.77-77.8,49.46-107.48,24.27-24.26,53.48-39.48,87.16-46.11,.37-.07,.73-.16,1.12-.63-.54-.09-1.08-.26-1.62-.26-24.28,0-48.55,.02-72.83-.03-1.75,0-2.77,.45-3.7,2.04-1.67,2.85-5.23,3.82-8.25,2.65-2.75-1.06-4.56-4-4.32-7.01,.26-3.15,2.63-5.74,5.7-6.22,3.34-.52,6.37,1.02,7.53,4.24,.61,1.68,1.37,2.21,3.12,2.21,31.13-.06,62.26-.05,93.39-.07,.86,0,1.71-.13,2.82-.21V0h20.76V8.82c1.44,.07,2.47,.17,3.51,.17,28.39,0,56.78-.02,85.17,.02,1.96,0,3.14-.23,3.77-2.51,.84-3.05,4.1-4.74,7.19-4.34,3.11,.4,5.61,2.91,5.97,5.98,.37,3.2-1.35,6.15-4.26,7.29-2.98,1.18-6.25,.36-8.08-2.33-.91-1.34-1.76-2.01-3.48-2.01-23.3,.06-46.6,.04-69.9,.05-.52,0-1.05,.11-1.57,.17Z"/><path class="d" d="M140.88,249.37h75.11v27.21h-75.11v-27.21Z"/></g></g></g></svg>